<?xml version="1.0" standalone="no"?>
<!DOCTYPE svg PUBLIC "-//W3C//DTD SVG 20010904//EN" "http://www.w3.org/TR/2001/REC-SVG-20010904/DTD/svg10.dtd">
<svg xmlns="http://www.w3.org/2000/svg" version="1.0" width="1024.000000pt" height="1024.000000pt" viewBox="0 0 1024.000000 1024.000000" preserveAspectRatio="xMidYMid meet">
<metadata>
Created by potrace 1.16, written by Peter Selinger 2001-2019
<meta name="Producer" content="Online-Convert"/></metadata>
<g transform="translate(0.000000,1024.000000) scale(0.100000,-0.100000)" fill="#000000" stroke="none">
<path d="M0 5120 l0 -5120 5120 0 5120 0 0 5120 0 5120 -5120 0 -5120 0 0 -5120z m5457 2240 c68 -151 137 -304 153 -340 15 -36 54 -121 85 -190 31 -69 72 -159 90 -200 64 -144 132 -296 205 -455 40 -88 73 -166 73 -172 0 -7 4 -13 8 -13 4 0 12 -13 17 -30 10 -28 8 -32 -51 -89 -34 -33 -63 -58 -65 -57 -1 2 22 29 53 59 52 53 66 79 46 91 -4 3 -16 27 -26 53 -10 26 -38 90 -62 141 -24 51 -43 96 -43 99 0 4 -20 47 -44 97 -24 50 -47 101 -50 114 -4 12 -12 19 -18 16 -7 -5 -8 -2 -3 5 4 7 -4 35 -18 64 -14 29 -37 78 -51 110 -14 32 -30 56 -35 53 -5 -3 -7 4 -4 16 4 19 3 21 -7 8 -10 -13 -11 -12 -6 4 8 25 -3 58 -16 50 -7 -4 -8 -2 -4 5 4 6 1 23 -8 36 -9 13 -16 28 -16 33 0 5 -11 34 -25 63 -14 30 -23 43 -19 30 4 -16 3 -21 -5 -17 -6 4 -11 17 -10 29 3 38 -1 58 -10 52 -6 -3 -10 3 -9 12 0 10 -12 41 -26 68 -14 28 -24 39 -21 25 5 -19 0 -31 -16 -45 -22 -20 -22 -20 -12 0 28 56 20 116 -8 63 -7 -13 -14 -18 -16 -12 -2 6 3 23 11 39 13 25 13 33 0 64 -8 19 -17 37 -21 40 -6 6 0 -23 12 -51 4 -10 3 -18 -2 -18 -5 0 -15 21 -23 47 -7 26 -15 42 -18 35 -3 -9 -63 -12 -243 -12 l-239 0 0 -40 0 -40 -155 0 c-97 0 -155 -4 -155 -10 0 -5 -5 -10 -11 -10 -6 0 -9 20 -6 55 2 30 0 52 -5 49 -5 -3 -6 7 -3 23 5 22 2 20 -13 -12 -26 -54 -51 -85 -52 -65 0 8 -9 -2 -20 -23 -11 -20 -20 -40 -20 -44 1 -5 8 5 16 20 21 39 30 27 9 -12 -9 -17 -11 -31 -5 -31 5 0 10 5 10 12 0 6 2 9 5 6 9 -9 -35 -86 -66 -118 -16 -16 -29 -26 -29 -23 0 4 -2 4 -5 1 -3 -3 -1 -17 4 -32 6 -14 7 -25 2 -23 -8 2 -61 -49 -61 -59 0 -3 9 0 20 6 11 6 20 7 20 1 0 -11 -29 -23 -40 -16 -12 8 -21 -41 -12 -67 5 -13 5 -36 1 -53 l-7 -30 -2 30 c-2 17 -2 38 -2 48 3 30 -14 11 -28 -32 -7 -23 -16 -41 -20 -41 -12 0 -42 -89 -34 -102 4 -7 3 -9 -1 -5 -11 10 -47 -62 -38 -76 3 -5 1 -7 -4 -4 -14 9 -25 -20 -18 -47 5 -15 4 -17 -3 -7 -8 10 -15 2 -31 -34 -12 -26 -21 -54 -21 -61 0 -8 -4 -14 -9 -14 -12 0 -32 -60 -24 -73 4 -6 1 -7 -7 -2 -10 6 -11 1 -6 -21 4 -19 3 -24 -3 -15 -7 11 -13 7 -25 -18 -17 -32 -5 -45 13 -13 6 9 11 12 11 5 0 -6 -11 -20 -25 -31 -14 -11 -37 -46 -51 -79 -14 -32 -34 -75 -44 -95 -11 -21 -17 -46 -14 -55 5 -15 4 -16 -6 -3 -9 12 -10 9 -6 -15 4 -16 3 -25 -1 -18 -8 12 -26 -22 -118 -222 -21 -44 -55 -117 -76 -163 -22 -46 -39 -85 -39 -87 0 -8 -109 -230 -110 -223 0 9 138 317 149 333 4 6 17 33 29 60 11 28 44 100 72 160 29 61 58 124 65 140 18 39 170 373 205 450 15 33 76 166 135 295 60 129 111 237 114 240 3 3 7 12 9 20 2 8 30 74 63 145 33 72 99 217 147 322 l87 193 245 3 c135 1 274 3 310 2 l64 0 123 -275z m-407 -571 c0 -5 -4 -7 -10 -4 -15 9 -12 -22 3 -37 8 -7 20 -31 27 -52 9 -28 15 -35 21 -25 7 12 9 11 10 -1 7 -59 22 -105 44 -138 16 -23 25 -29 29 -20 3 7 3 2 0 -11 -4 -15 -2 -21 4 -17 6 3 14 1 18 -5 4 -8 3 -9 -4 -5 -20 12 -14 -11 24 -90 27 -55 39 -72 46 -62 7 9 8 7 3 -8 -4 -14 22 -78 81 -200 48 -98 124 -258 171 -354 46 -96 88 -183 94 -193 6 -11 8 -21 5 -24 -3 -3 -19 23 -34 58 -16 35 -70 147 -119 249 -50 102 -112 230 -138 285 -26 55 -90 188 -142 295 -154 317 -165 341 -159 356 6 16 26 19 26 3z m2148 -139 c2 -5 19 -26 38 -45 19 -20 34 -41 34 -47 0 -9 3 -9 12 0 7 7 17 12 23 12 6 0 5 -4 -2 -8 -9 -6 -9 -17 2 -47 17 -47 19 -107 5 -155 -7 -25 -7 -36 3 -42 8 -6 6 -8 -8 -6 -12 2 -21 -4 -23 -16 -2 -11 0 -16 7 -12 6 4 11 2 11 -4 0 -6 -10 -8 -25 -4 -20 5 -27 1 -36 -20 -9 -20 -9 -29 1 -41 14 -16 0 -21 -16 -5 -5 5 -20 7 -33 3 -17 -4 -19 -8 -9 -14 9 -6 3 -10 -19 -15 -18 -4 -33 -11 -33 -16 0 -5 -6 -6 -12 -3 -7 4 -4 -1 6 -9 22 -18 63 -21 86 -6 11 7 11 10 2 10 -7 0 -10 5 -7 10 3 6 11 10 16 10 6 0 7 -4 4 -10 -12 -20 9 -9 52 26 24 20 46 34 49 32 6 -6 -64 -61 -106 -83 -20 -11 -65 -20 -107 -23 -59 -4 -84 0 -146 21 l-75 26 -234 -237 c-429 -434 -472 -477 -432 -432 21 24 45 49 53 56 8 6 11 16 7 22 -4 8 -2 10 7 6 9 -3 22 4 31 18 9 12 90 98 181 189 109 111 163 172 159 182 -3 8 -1 18 5 22 7 3 8 0 5 -9 -8 -22 1 -20 31 6 20 17 24 28 20 57 -3 22 -1 31 4 22 6 -10 10 -10 16 -1 4 6 13 9 21 6 21 -8 41 19 39 52 -1 20 2 29 10 26 7 -3 20 7 29 21 19 28 17 32 -31 81 -18 18 -21 31 -18 75 3 42 2 49 -6 30 -5 -13 -7 -31 -4 -41 3 -10 -5 -26 -20 -40 -14 -13 -25 -19 -25 -13 0 5 8 17 19 27 16 14 17 23 9 69 -13 65 -4 168 17 204 10 18 14 21 11 8 -16 -63 -24 -110 -20 -114 2 -2 4 2 4 10 0 11 2 11 10 -1 7 -12 10 -8 10 15 0 22 9 38 35 59 19 16 35 37 35 47 0 10 10 19 25 23 14 4 25 11 25 16 0 6 7 10 15 10 9 0 18 7 22 16 5 15 20 16 122 11 64 -4 117 -11 119 -17z m-458 -1207 c-24 -3 -50 -9 -57 -15 -7 -6 -20 -8 -28 -4 -8 3 -15 2 -15 -3 0 -4 -11 -14 -24 -21 -14 -7 -28 -20 -31 -28 -7 -19 13 -42 23 -26 11 16 48 34 72 34 12 0 18 5 15 10 -7 11 1 13 60 11 68 -2 138 -23 163 -48 13 -13 30 -22 37 -20 12 5 65 -114 65 -147 0 -10 5 -27 11 -38 7 -12 7 -23 2 -27 -5 -3 -9 -28 -9 -54 1 -35 -3 -52 -17 -65 -11 -9 -22 -16 -26 -14 -3 2 -7 -3 -9 -11 -5 -26 32 -14 55 17 15 19 21 38 18 55 -5 22 -4 23 4 6 8 -18 9 -18 16 8 5 18 3 38 -5 53 -8 13 -10 27 -7 31 4 3 7 -1 7 -10 0 -9 5 -19 12 -23 8 -5 10 15 6 77 -4 65 -3 76 4 49 16 -54 3 -161 -25 -217 -32 -63 -111 -142 -173 -173 -75 -37 -147 -39 -223 -4 l-62 27 -67 -64 c-64 -63 -67 -59 -7 9 17 19 44 43 60 53 17 10 24 19 17 19 -7 0 -11 4 -8 9 3 5 -6 16 -19 25 -14 9 -24 20 -21 24 3 5 1 14 -5 22 -6 10 -9 11 -9 3 0 -7 -4 -13 -9 -13 -5 0 -7 10 -4 23 4 21 4 21 -10 4 -13 -15 -33 -22 -79 -26 -5 -1 -8 -8 -8 -16 0 -8 -9 -19 -21 -25 -12 -7 -18 -18 -15 -26 3 -9 1 -12 -4 -9 -6 4 -33 -17 -62 -47 -39 -41 -43 -44 -20 -13 17 22 65 76 107 120 l76 80 -5 65 c-10 125 39 256 118 316 48 37 63 42 131 41 l50 0 -45 -4z"/>
</g>
</svg>
